<svg width="730" height="450" viewBox="0 0 730 450" fill="none" xmlns="http://www.w3.org/2000/svg">
<g id="aboutcircles2 1">
<g id="circl46">
<path id="Vector_4_6" d="M654.003 232C687.136 232 714 205.132 714 171.997C714 138.862 687.136 112 654.003 112C620.864 112 594 138.862 594 171.997C594 205.132 620.864 232 654.003 232Z" fill="#3688E5"/>
</g>
<g id="circl45">
<path id="Vector_4_6_2" d="M387.001 265C403.568 265 417 251.566 417 234.999C417 218.431 403.568 205 387.001 205C370.432 205 357 218.431 357 234.999C357 251.566 370.432 265 387.001 265Z" fill="#36E5A0"/>
</g>
<g id="circl44">
<path id="Vector_4_6_3" d="M70 393C75.523 393 80 388.522 80 383C80 377.477 75.523 373 70 373C64.477 373 60 377.477 60 383C60 388.522 64.477 393 70 393Z" fill="#00EBDD"/>
</g>
<g id="circl43">
<path id="Vector_4_6_4" d="M226.004 280C267.42 280 301 246.415 301 204.996C301 163.577 267.42 130 226.004 130C184.58 130 151 163.577 151 204.996C151 246.415 184.58 280 226.004 280Z" fill="#F3FF80"/>
</g>
<g id="circl42">
<path id="Vector_4_6_5" d="M508.005 443C563.227 443 608 398.22 608 342.995C608 287.769 563.227 243 508.005 243C452.773 243 408 287.769 408 342.995C408 398.22 452.773 443 508.005 443Z" fill="#CD80FF"/>
</g>
<g id="circl41">
<path id="Vector_4_6_6" d="M251.001 393C264.807 393 276 381.805 276 367.999C276 354.192 264.807 343 251.001 343C237.193 343 226 354.192 226 367.999C226 381.805 237.193 393 251.001 393Z" fill="#63E536"/>
</g>
<g id="circl40">
<path id="Vector_4_6_7" d="M157.001 104C165.284 104 172 97.283 172 88.999C172 80.715 165.284 74 157.001 74C148.716 74 142 80.715 142 88.999C142 97.283 148.716 104 157.001 104Z" fill="#FF86E7"/>
</g>
</g>
</svg>
