<svg width="900" height="450" viewBox="0 0 900 450" fill="none" xmlns="http://www.w3.org/2000/svg">
<g id="Mask group">
<mask id="mask0_2_3" style="mask-type:alpha" maskUnits="userSpaceOnUse" x="0" y="0" width="900" height="450">
<rect id="Rectangle 1" width="900" height="450" fill="#D9D9D9"/>
</mask>
<g mask="url(#mask0_2_3)">
<g id="crcl39">
<path id="Vector_4_6" d="M518.003 357C551.136 357 578 330.132 578 296.997C578 263.862 551.136 237 518.003 237C484.864 237 458 263.862 458 296.997C458 330.132 484.864 357 518.003 357Z" fill="#7683FF"/>
</g>
<g id="crcl38">
<path id="Vector_4_6_3" d="M586 145C591.523 145 596 140.522 596 135C596 129.477 591.523 125 586 125C580.477 125 576 129.477 576 135C576 140.522 580.477 145 586 145Z" fill="#00EBDD"/>
</g>
<g id="aboutCircle4">
<g id="crcl37">
<path id="Vector_4_6_4" d="M104.004 417C145.42 417 179 383.415 179 341.996C179 300.577 145.42 267 104.004 267C62.58 267 29 300.577 29 341.996C29 383.415 62.58 417 104.004 417Z" fill="#70FF42"/>
</g>
</g>
<g id="crcl36">
<path id="Vector_4_6_5" d="M192.005 245C247.227 245 292 200.22 292 144.995C292 89.7695 247.227 45 192.005 45C136.773 45 92 89.7695 92 144.995C92 200.22 136.773 245 192.005 245Z" fill="#CD80FF"/>
</g>
<g id="crcl35">
<path id="Vector_4_6_6" d="M396.001 170C409.807 170 421 158.805 421 144.999C421 131.192 409.807 120 396.001 120C382.193 120 371 131.192 371 144.999C371 158.805 382.193 170 396.001 170Z" fill="#B832FF"/>
</g>
<g id="crcl34">
<path id="Vector_4_6_7" d="M677.001 87C685.284 87 692 80.283 692 71.9993C692 63.7154 685.284 57 677.001 57C668.716 57 662 63.7154 662 71.9993C662 80.283 668.716 87 677.001 87Z" fill="#FF86E7"/>
</g>
<g id="crcl33">
<path id="Vector_4_6_2" d="M841.001 93C857.568 93 871 79.566 871 62.9986C871 46.4309 857.568 33 841.001 33C824.432 33 811 46.4309 811 62.9986C811 79.566 824.432 93 841.001 93Z" fill="#36E5A0"/>
</g>
</g>
</g>
</svg>
