<svg class="baloons" width="350" height="850" viewBox="0 0 350 850" fill="none" xmlns="http://www.w3.org/2000/svg">
<g id="Mask group">
<mask id="mask0_2_3" style="mask-type:alpha" maskUnits="userSpaceOnUse" x="0" y="0" width="350" height="850">
<rect id="Rectangle 1" width="350" height="850" fill="#C4C4C4"/>
</mask>
<g mask="url(#mask0_2_3)">
<g id="b1">
<g id="Group 1_2">
<path id="Vector" d="M89.2402 599.978C83.3939 580.865 65.34 570.243 53.4631 574.588C41.5862 578.934 33.011 599.299 38.8572 618.411C44.2687 636.103 60.6662 646.316 71.9464 644.493C71.865 644.648 71.8115 644.818 71.7886 644.995L71.4437 648.141C71.4174 648.381 71.4476 648.624 71.5315 648.848C71.6153 649.071 71.75 649.268 71.9227 649.418C72.0954 649.569 72.3004 649.668 72.5183 649.708C72.7362 649.747 72.9598 649.725 73.1677 649.644L78.9783 647.365C79.1862 647.284 79.3716 647.145 79.5169 646.963C79.6622 646.782 79.7626 646.562 79.8085 646.326C79.8544 646.089 79.8443 645.844 79.7792 645.613C79.7141 645.383 79.5961 645.174 79.4364 645.007L77.3419 642.817C77.2674 642.743 77.1852 642.678 77.0969 642.625C87.1578 636.695 94.6634 617.708 89.2402 599.978Z" fill="#DFDFDF"/>
</g>
<path id="Vector_2" d="M68.0758 585.917C72.9309 588.657 76.6387 593.331 78.4338 598.975C80.2289 604.618 79.9743 610.8 77.7226 616.244C77.2198 617.496 79.0688 618.154 79.5683 616.911C81.9325 611.02 82.1729 604.37 80.2415 598.293C78.31 592.217 74.3495 587.164 69.1541 584.147C68.0575 583.512 66.9711 585.276 68.0758 585.917Z" fill="white"/>
</g>
<g id="b3">
<g id="Group 3_2">
<path id="Vector_3" d="M325.935 572.119C320.088 553.006 302.034 542.383 290.158 546.729C278.281 551.074 269.705 571.439 275.552 590.552C280.963 608.243 297.361 618.456 308.641 616.634C308.559 616.788 308.506 616.959 308.483 617.135L308.138 620.282C308.112 620.521 308.142 620.765 308.226 620.988C308.31 621.212 308.444 621.408 308.617 621.558C308.79 621.709 308.995 621.809 309.213 621.848C309.431 621.888 309.654 621.866 309.862 621.784L315.673 619.506C315.881 619.424 316.066 619.286 316.211 619.104C316.357 618.922 316.457 618.702 316.503 618.466C316.549 618.23 316.539 617.985 316.474 617.754C316.409 617.523 316.291 617.314 316.131 617.147L314.036 614.958C313.962 614.883 313.88 614.818 313.791 614.765C323.852 608.835 331.358 589.848 325.935 572.119Z" fill="#DFDFDF"/>
</g>
<path id="Vector_4" d="M304.77 558.057C309.625 560.797 313.333 565.472 315.128 571.115C316.923 576.759 316.669 582.941 314.417 588.385C313.914 589.637 315.763 590.295 316.263 589.051C318.627 583.161 318.867 576.51 316.936 570.434C315.004 564.357 311.044 559.304 305.849 556.288C304.752 555.652 303.666 557.417 304.77 558.057Z" fill="white"/>
</g>
<g id="b2">
<g id="Group 2_2">
<path id="Vector_5" d="M188.482 541.357C182.636 522.244 164.582 511.622 152.705 515.967C140.828 520.312 132.253 540.677 138.099 559.79C143.511 577.481 159.908 587.694 171.188 585.872C171.107 586.027 171.053 586.197 171.03 586.374L170.686 589.52C170.659 589.76 170.689 590.003 170.773 590.226C170.857 590.45 170.992 590.646 171.165 590.797C171.337 590.947 171.542 591.047 171.76 591.087C171.978 591.126 172.202 591.104 172.409 591.023L178.22 588.744C178.428 588.662 178.613 588.524 178.759 588.342C178.904 588.16 179.004 587.941 179.05 587.704C179.096 587.468 179.086 587.223 179.021 586.992C178.956 586.761 178.838 586.552 178.678 586.385L176.584 584.196C176.509 584.121 176.427 584.057 176.339 584.003C186.4 578.073 193.905 559.086 188.482 541.357Z" fill="#DFDFDF"/>
</g>
<path id="Vector_6" d="M167.318 527.295C172.173 530.036 175.88 534.71 177.676 540.353C179.471 545.997 179.216 552.179 176.964 557.623C176.462 558.875 178.311 559.533 178.81 558.289C181.174 552.399 181.415 545.749 179.483 539.672C177.552 533.596 173.591 528.543 168.396 525.526C167.299 524.89 166.213 526.655 167.318 527.295Z" fill="white"/>
</g>
<path id="Vector_7" d="M159.16 633.324C159.93 633.324 160.553 632.642 160.553 631.8C160.553 630.959 159.93 630.277 159.16 630.277C158.391 630.277 157.768 630.959 157.768 631.8C157.768 632.642 158.391 633.324 159.16 633.324Z" fill="#CCCCCC"/>
<path id="Vector_8" d="M156.192 694.428C157.711 694.428 158.943 693.081 158.943 691.419C158.943 689.757 157.711 688.41 156.192 688.41C154.672 688.41 153.44 689.757 153.44 691.419C153.44 693.081 154.672 694.428 156.192 694.428Z" fill="#CCCCCC"/>
<path id="Vector_9" d="M110.129 682.842C111.007 682.842 111.719 682.063 111.719 681.103C111.719 680.143 111.007 679.364 110.129 679.364C109.251 679.364 108.539 680.143 108.539 681.103C108.539 682.063 109.251 682.842 110.129 682.842Z" fill="#CCCCCC"/>
<path id="Vector_10" d="M134.283 654.37C135.234 654.37 136.005 653.527 136.005 652.487C136.005 651.447 135.234 650.604 134.283 650.604C133.332 650.604 132.561 651.447 132.561 652.487C132.561 653.527 133.332 654.37 134.283 654.37Z" fill="#CCCCCC"/>
<path id="Vector_11" d="M219.007 764.618C219.776 764.618 220.4 763.936 220.4 763.094C220.4 762.253 219.776 761.571 219.007 761.571C218.238 761.571 217.614 762.253 217.614 763.094C217.614 763.936 218.238 764.618 219.007 764.618Z" fill="#CCCCCC"/>
<path id="Vector_12" d="M173.393 733.296C174.913 733.296 176.144 731.948 176.144 730.286C176.144 728.625 174.913 727.277 173.393 727.277C171.873 727.277 170.642 728.625 170.642 730.286C170.642 731.948 171.873 733.296 173.393 733.296Z" fill="#CCCCCC"/>
<path id="Vector_13" d="M204.725 693.683C205.603 693.683 206.315 692.905 206.315 691.945C206.315 690.984 205.603 690.206 204.725 690.206C203.847 690.206 203.135 690.984 203.135 691.945C203.135 692.905 203.847 693.683 204.725 693.683Z" fill="#CCCCCC"/>
<path id="Vector_14" d="M215.18 731.055C216.131 731.055 216.902 730.212 216.902 729.172C216.902 728.132 216.131 727.289 215.18 727.289C214.23 727.289 213.459 728.132 213.459 729.172C213.459 730.212 214.23 731.055 215.18 731.055Z" fill="#CCCCCC"/>
<path id="Vector_15" d="M307.92 828.039C309.439 826.648 307.386 821.23 303.334 815.937C299.282 810.645 294.766 807.482 293.247 808.873C291.728 810.264 293.781 815.682 297.833 820.975C301.884 826.267 306.401 829.43 307.92 828.039Z" fill="#2F2E41"/>
<path id="Vector_16" d="M276.273 839.112C288.896 839.112 299.129 827.921 299.129 814.116C299.129 800.311 288.896 789.119 276.273 789.119C263.65 789.119 253.417 800.311 253.417 814.116C253.417 827.921 263.65 839.112 276.273 839.112Z" fill="#2F2E41"/>
<path id="Vector_17" d="M285.947 833.733H279.004V847.339H285.947V833.733Z" fill="#2F2E41"/>
<path id="Vector_18" d="M272.06 833.733H265.117V847.339H272.06V833.733Z" fill="#2F2E41"/>
<path id="Vector_19" d="M280.161 849.87C283.357 849.87 285.947 848.808 285.947 847.497C285.947 846.187 283.357 845.124 280.161 845.124C276.965 845.124 274.375 846.187 274.375 847.497C274.375 848.808 276.965 849.87 280.161 849.87Z" fill="#2F2E41"/>
<path id="Vector_20" d="M266.274 849.554C269.47 849.554 272.06 848.492 272.06 847.181C272.06 845.87 269.47 844.808 266.274 844.808C263.078 844.808 260.487 845.87 260.487 847.181C260.487 848.492 263.078 849.554 266.274 849.554Z" fill="#2F2E41"/>
<path id="Vector_21" d="M269.097 782.694C271.137 773.705 280.146 768.416 289.218 770.879C298.29 773.343 303.99 782.627 301.949 791.616C299.908 800.605 293.137 800.634 284.065 798.17C274.993 795.706 267.056 791.683 269.097 782.694Z" fill="#288BFF"/>
<path id="Vector_22" d="M260.855 807.873C261.704 805.915 257.77 801.93 252.067 798.972C246.364 796.014 241.053 795.203 240.204 797.161C239.355 799.119 243.29 803.104 248.992 806.062C254.695 809.02 260.006 809.831 260.855 807.873Z" fill="#2F2E41"/>
<path id="Vector_23" d="M272.856 817.175C277.065 817.175 280.476 813.444 280.476 808.841C280.476 804.239 277.065 800.507 272.856 800.507C268.648 800.507 265.236 804.239 265.236 808.841C265.236 813.444 268.648 817.175 272.856 817.175Z" fill="white"/>
<path id="Vector_24" d="M269.724 808.632C271.127 808.632 272.264 807.388 272.264 805.854C272.264 804.32 271.127 803.076 269.724 803.076C268.322 803.076 267.184 804.32 267.184 805.854C267.184 807.388 268.322 808.632 269.724 808.632Z" fill="#3F3D56"/>
<path id="Vector_25" d="M277.637 826.204C277.756 826.922 277.745 827.659 277.604 828.372C277.463 829.085 277.196 829.761 276.816 830.361C276.436 830.961 275.952 831.473 275.392 831.869C274.831 832.264 274.205 832.535 273.548 832.666C272.892 832.796 272.219 832.784 271.566 832.63C270.914 832.476 270.296 832.183 269.748 831.768C269.199 831.353 268.731 830.824 268.369 830.211C268.008 829.597 267.76 828.912 267.641 828.195V828.195L267.639 828.184C267.139 825.164 269.274 824.096 272.034 823.549C274.795 823.003 277.137 823.185 277.637 826.204Z" fill="white"/>
<path id="Vector_26" d="M88.3636 796.64C90.617 790.193 90.9433 784.339 89.0925 783.565C87.2418 782.791 83.9147 787.391 81.6613 793.839C79.4079 800.287 79.0815 806.141 80.9323 806.914C82.7831 807.688 86.1102 803.088 88.3636 796.64Z" fill="#2F2E41"/>
<path id="Vector_27" d="M63.8866 839.113C76.5096 839.113 86.7426 827.921 86.7426 814.116C86.7426 800.311 76.5096 789.119 63.8866 789.119C51.2635 789.119 41.0305 800.311 41.0305 814.116C41.0305 827.921 51.2635 839.113 63.8866 839.113Z" fill="#2F2E41"/>
<path id="Vector_28" d="M60.4148 833.733H53.4712V847.339H60.4148V833.733Z" fill="#2F2E41"/>
<path id="Vector_29" d="M74.302 833.733H67.3584V847.339H74.302V833.733Z" fill="#2F2E41"/>
<path id="Vector_30" d="M59.2575 849.87C62.4532 849.87 65.0439 848.808 65.0439 847.497C65.0439 846.187 62.4532 845.124 59.2575 845.124C56.0618 845.124 53.4712 846.187 53.4712 847.497C53.4712 848.808 56.0618 849.87 59.2575 849.87Z" fill="#2F2E41"/>
<path id="Vector_31" d="M73.1447 849.554C76.3404 849.554 78.9311 848.492 78.9311 847.181C78.9311 845.87 76.3404 844.808 73.1447 844.808C69.949 844.808 67.3584 845.87 67.3584 847.181C67.3584 848.492 69.949 849.554 73.1447 849.554Z" fill="#2F2E41"/>
<path id="Vector_32" d="M64.4652 816.33C68.7794 816.33 72.2768 812.506 72.2768 807.787C72.2768 803.069 68.7794 799.244 64.4652 799.244C60.151 799.244 56.6537 803.069 56.6537 807.787C56.6537 812.506 60.151 816.33 64.4652 816.33Z" fill="white"/>
<path id="Vector_33" d="M64.4652 810.635C65.9033 810.635 67.0691 809.36 67.0691 807.787C67.0691 806.215 65.9033 804.94 64.4652 804.94C63.0271 804.94 61.8613 806.215 61.8613 807.787C61.8613 809.36 63.0271 810.635 64.4652 810.635Z" fill="#3F3D56"/>
<path id="Vector_34" d="M41.7154 790.87C39.8699 781.83 45.7693 772.697 54.8921 770.469C64.0149 768.241 72.9065 773.763 74.752 782.802C76.5975 791.841 70.5515 795.175 61.4287 797.403C52.3059 799.63 43.5609 799.909 41.7154 790.87Z" fill="#FF459E"/>
<path id="Vector_35" d="M48.4686 807.873C49.3177 805.915 45.3831 801.93 39.6804 798.972C33.9778 796.014 28.6666 795.203 27.8175 797.161C26.9684 799.119 30.903 803.104 36.6056 806.062C42.3083 809.02 47.6195 809.831 48.4686 807.873Z" fill="#2F2E41"/>
<path id="Vector_36" d="M52.6598 823.133C52.6598 825.58 58.4196 830.411 64.8111 830.411C71.2025 830.411 77.1952 823.523 77.1952 821.077C77.1952 818.63 71.2025 821.551 64.8111 821.551C58.4197 821.551 52.6598 820.687 52.6598 823.133Z" fill="white"/>
<path id="Vector_37" d="M173.063 815.316C185.686 815.316 195.919 804.124 195.919 790.319C195.919 776.514 185.686 765.322 173.063 765.322C160.44 765.322 150.207 776.514 150.207 790.319C150.207 804.124 160.44 815.316 173.063 815.316Z" fill="#2F2E41"/>
<path id="Vector_38" d="M169.591 809.937H162.647V823.542H169.591V809.937Z" fill="#2F2E41"/>
<path id="Vector_39" d="M183.478 809.937H176.535V823.542H183.478V809.937Z" fill="#2F2E41"/>
<path id="Vector_40" d="M168.434 826.074C171.629 826.074 174.22 825.011 174.22 823.701C174.22 822.39 171.629 821.327 168.434 821.327C165.238 821.327 162.647 822.39 162.647 823.701C162.647 825.011 165.238 826.074 168.434 826.074Z" fill="#2F2E41"/>
<path id="Vector_41" d="M182.321 825.757C185.517 825.757 188.107 824.695 188.107 823.384C188.107 822.073 185.517 821.011 182.321 821.011C179.125 821.011 176.535 822.073 176.535 823.384C176.535 824.695 179.125 825.757 182.321 825.757Z" fill="#2F2E41"/>
<path id="Vector_42" d="M150.892 767.073C149.046 758.033 154.946 748.9 164.068 746.672C173.191 744.444 182.083 749.966 183.928 759.005C185.774 768.044 179.728 771.378 170.605 773.606C161.482 775.834 152.737 776.112 150.892 767.073Z" fill="#39DD00"/>
<path id="Vector_43" d="M197.692 779.396C202.642 773.978 205.394 768.209 203.839 766.509C202.284 764.81 197.011 767.824 192.061 773.242C187.111 778.659 184.359 784.429 185.914 786.128C187.469 787.828 192.743 784.813 197.692 779.396Z" fill="#2F2E41"/>
<path id="Vector_44" d="M154.64 787.87C156.195 786.17 153.443 780.401 148.493 774.983C143.543 769.565 138.27 766.551 136.715 768.251C135.16 769.95 137.912 775.72 142.862 781.137C147.812 786.555 153.085 789.569 154.64 787.87Z" fill="#2F2E41"/>
<path id="Vector_45" d="M312.016 631.674C311.258 606.044 295.206 585.813 276.165 586.487C233.786 587.86 232.752 672.852 273.667 678.958L272.8 686.489L285.437 686.041L284.127 678.587C300.586 674.609 312.704 654.912 312.016 631.674Z" fill="#FF69B6"/>
<path id="Vector_46" d="M255.091 645.885L250.317 646.054C248.446 636.324 248.149 626.311 249.441 616.469L254.215 616.3C252.452 626.602 252.744 636.464 255.091 645.885Z" fill="white"/>
<path id="Vector_47" d="M286.056 678.47L271.735 678.977L271.838 682.458L286.159 681.951L286.056 678.47Z" fill="#3F3D56"/>
<path id="Vector_48" d="M244.458 811.748L243.016 811.009L278.474 679.505L279.916 680.244L244.458 811.748Z" fill="#3F3D56"/>
<path id="Vector_49" d="M341.363 653.348C350.022 629.517 342.689 603.96 324.985 596.266C285.628 579.024 253.658 656.5 288.943 679.959L285.4 686.486L297.15 691.593L298.67 684.186C315.213 687.724 333.513 674.954 341.363 653.348Z" fill="#BA63FF"/>
<path id="Vector_50" d="M283.983 641.527L279.544 639.598C281.38 629.859 284.763 620.549 289.539 612.089L293.978 614.018C288.601 622.694 285.269 631.864 283.983 641.527Z" fill="white"/>
<path id="Vector_51" d="M287.165 679.134L285.989 682.37L299.305 688.157L300.481 684.921L287.165 679.134Z" fill="#3F3D56"/>
<path id="Vector_52" d="M244.178 808.286L242.795 807.425L292.298 683.874L293.681 684.735L244.178 808.286Z" fill="#3F3D56"/>
<path id="Vector_53" d="M72.2892 633.331C62.9207 609.822 41.168 597.514 23.7032 605.839C-15.209 624.248 12.558 703.638 52.6383 692.769L54.3791 700.117L65.9692 694.592L62.2326 688.196C76.1809 677.845 80.7829 654.644 72.2892 633.331Z" fill="#F9F24B"/>
<path id="Vector_54" d="M24.1996 669.549L19.8211 671.636C14.7934 663.352 11.1332 654.168 9.00702 644.501L13.3856 642.414C15.2296 652.699 18.8343 661.744 24.1996 669.549Z" fill="white"/>
<path id="Vector_55" d="M63.9854 687.307L50.8498 693.568L52.122 696.761L65.2577 690.499L63.9854 687.307Z" fill="#3F3D56"/>
<path id="Vector_56" d="M94.3768 812.084C94.1719 812.14 93.9552 812.104 93.7744 811.985C93.5936 811.866 93.4635 811.673 93.4126 811.449L58.8067 691.527L60.3519 691.108L94.9578 811.029C94.983 811.14 94.9879 811.256 94.9723 811.369C94.9568 811.482 94.921 811.59 94.867 811.688C94.8131 811.786 94.742 811.872 94.6579 811.94C94.5738 812.007 94.4783 812.057 94.3768 812.084Z" fill="#3F3D56"/>
<path id="Vector_57" d="M103.626 850H20.3049C20.1641 850 20.0291 849.939 19.9296 849.83C19.8301 849.721 19.7742 849.573 19.7742 849.42C19.7742 849.266 19.8301 849.118 19.9296 849.009C20.0291 848.9 20.1641 848.839 20.3049 848.839H103.626C103.766 848.839 103.901 848.9 104.001 849.009C104.1 849.118 104.156 849.266 104.156 849.42C104.156 849.573 104.1 849.721 104.001 849.83C103.901 849.939 103.766 850 103.626 850Z" fill="#CCCCCC"/>
<path id="Vector_58" d="M315.377 850H232.056C231.915 850 231.78 849.939 231.681 849.83C231.581 849.721 231.526 849.573 231.526 849.42C231.526 849.266 231.581 849.118 231.681 849.009C231.78 848.9 231.915 848.839 232.056 848.839H315.377C315.518 848.839 315.653 848.9 315.752 849.009C315.852 849.118 315.908 849.266 315.908 849.42C315.908 849.573 315.852 849.721 315.752 849.83C315.653 849.939 315.518 850 315.377 850Z" fill="#CCCCCC"/>
<path id="Vector_59" d="M216.135 826.203H132.814C132.674 826.203 132.539 826.142 132.439 826.033C132.34 825.924 132.284 825.777 132.284 825.623C132.284 825.469 132.34 825.321 132.439 825.212C132.539 825.104 132.674 825.042 132.814 825.042H216.135C216.276 825.042 216.411 825.104 216.51 825.212C216.61 825.321 216.666 825.469 216.666 825.623C216.666 825.777 216.61 825.924 216.51 826.033C216.411 826.142 216.276 826.203 216.135 826.203Z" fill="#CCCCCC"/>
<path id="Vector_60" d="M172.101 795.32C176.415 795.32 179.913 791.495 179.913 786.777C179.913 782.058 176.415 778.233 172.101 778.233C167.787 778.233 164.29 782.058 164.29 786.777C164.29 791.495 167.787 795.32 172.101 795.32Z" fill="white"/>
<path id="Vector_61" d="M172.101 789.624C173.539 789.624 174.705 788.349 174.705 786.776C174.705 785.204 173.539 783.929 172.101 783.929C170.663 783.929 169.497 785.204 169.497 786.776C169.497 788.349 170.663 789.624 172.101 789.624Z" fill="#3F3D56"/>
<path id="Vector_62" d="M178.302 802.577C178.543 804.026 178.248 805.522 177.482 806.733C176.715 807.945 175.54 808.774 174.214 809.038C172.888 809.302 171.521 808.979 170.413 808.141C169.305 807.302 168.547 806.017 168.306 804.567L168.304 804.556C167.805 801.537 169.939 800.468 172.7 799.922C175.461 799.375 177.802 799.557 178.302 802.577Z" fill="white"/>
</g>
</g>
</svg>
