<svg width="558" height="257" viewBox="0 0 558 257" fill="none" xmlns="http://www.w3.org/2000/svg">
<g id="buddies 3">
<g id="buddies 2 1">
<g id="buddies 1">
<g id="Group 4">
<g id="b1">
<path id="Vector" d="M129.242 122.942C133.488 111.833 134.103 101.747 130.616 100.414C127.128 99.0814 120.859 107.006 116.613 118.115C112.367 129.224 111.752 139.31 115.239 140.643C118.727 141.976 124.996 134.051 129.242 122.942Z" fill="#2F2E41"/>
<path id="Vector_2" d="M83.1203 196.118C106.906 196.118 126.188 176.836 126.188 153.051C126.188 129.266 106.906 109.984 83.1203 109.984C59.3349 109.984 40.053 129.266 40.053 153.051C40.053 176.836 59.3349 196.118 83.1203 196.118Z" fill="#2F2E41"/>
<path id="Vector_3" d="M76.5784 186.851H63.4946V210.292H76.5784V186.851Z" fill="#2F2E41"/>
<path id="Vector_4" d="M102.746 186.851H89.6621V210.292H102.746V186.851Z" fill="#2F2E41"/>
<path id="Vector_5" d="M74.3979 214.654C80.4195 214.654 85.301 212.823 85.301 210.565C85.301 208.307 80.4195 206.476 74.3979 206.476C68.3763 206.476 63.4948 208.307 63.4948 210.565C63.4948 212.823 68.3763 214.654 74.3979 214.654Z" fill="#2F2E41"/>
<path id="Vector_6" d="M100.565 214.108C106.587 214.108 111.469 212.278 111.469 210.02C111.469 207.762 106.587 205.931 100.565 205.931C94.5436 205.931 89.6621 207.762 89.6621 210.02C89.6621 212.278 94.5436 214.108 100.565 214.108Z" fill="#2F2E41"/>
<path id="Vector_7" d="M84.2107 156.867C92.3399 156.867 98.9299 150.277 98.9299 142.148C98.9299 134.019 92.3399 127.429 84.2107 127.429C76.0815 127.429 69.4915 134.019 69.4915 142.148C69.4915 150.277 76.0815 156.867 84.2107 156.867Z" fill="white"/>
<path id="Vector_8" d="M84.2107 147.054C86.9204 147.054 89.1171 144.858 89.1171 142.148C89.1171 139.438 86.9204 137.241 84.2107 137.241C81.5009 137.241 79.3042 139.438 79.3042 142.148C79.3042 144.858 81.5009 147.054 84.2107 147.054Z" fill="#3F3D56"/>
<path id="Vector_10" d="M54.0685 142.295C55.6684 138.922 48.2545 132.056 37.5091 126.96C26.7636 121.863 16.7557 120.466 15.1558 123.84C13.5559 127.213 20.9698 134.079 31.7152 139.175C42.4606 144.272 52.4686 145.669 54.0685 142.295Z" fill="#2F2E41"/>
<path id="Vector_11" d="M61.9658 168.588C61.9658 172.803 72.819 181.126 84.8623 181.126C96.9056 181.126 108.198 169.259 108.198 165.044C108.198 160.829 96.9055 165.862 84.8623 165.862C72.8191 165.862 61.9658 164.373 61.9658 168.588Z" fill="white"/>
</g>
<g id="b2">
<path id="Vector_13" d="M540.787 177.056C543.65 174.659 539.781 165.324 532.147 156.205C524.512 147.087 516.002 141.638 513.14 144.034C510.277 146.431 514.146 155.766 521.78 164.885C529.415 174.003 537.925 179.452 540.787 177.056Z" fill="#2F2E41"/>
<path id="Vector_14" d="M481.156 196.134C504.942 196.134 524.224 176.853 524.224 153.067C524.224 129.282 504.942 110 481.156 110C457.371 110 438.089 129.282 438.089 153.067C438.089 176.853 457.371 196.134 481.156 196.134Z" fill="#2F2E41"/>
<path id="Vector_15" d="M499.385 186.867H486.301V210.308H499.385V186.867Z" fill="#2F2E41"/>
<path id="Vector_16" d="M473.218 186.867H460.134V210.308H473.218V186.867Z" fill="#2F2E41"/>
<path id="Vector_17" d="M488.482 214.67C494.504 214.67 499.385 212.839 499.385 210.581C499.385 208.323 494.504 206.492 488.482 206.492C482.46 206.492 477.579 208.323 477.579 210.581C477.579 212.839 482.46 214.67 488.482 214.67Z" fill="#2F2E41"/>
<path id="Vector_18" d="M462.315 214.124C468.336 214.124 473.218 212.294 473.218 210.036C473.218 207.778 468.336 205.947 462.315 205.947C456.293 205.947 451.411 207.778 451.411 210.036C451.411 212.294 456.293 214.124 462.315 214.124Z" fill="#2F2E41"/>
<path id="Vector_20" d="M452.104 142.311C453.704 138.938 446.29 132.072 435.545 126.976C424.8 121.879 414.792 120.482 413.192 123.856C411.592 127.229 419.006 134.095 429.751 139.191C440.497 144.288 450.505 145.685 452.104 142.311Z" fill="#2F2E41"/>
<path id="Vector_21" d="M474.718 158.338C482.648 158.338 489.076 151.91 489.076 143.98C489.076 136.049 482.648 129.621 474.718 129.621C466.788 129.621 460.359 136.049 460.359 143.98C460.359 151.91 466.788 158.338 474.718 158.338Z" fill="white"/>
<path id="Vector_22" d="M473.602 148.405C476.246 148.405 478.389 146.262 478.389 143.619C478.389 140.975 476.246 138.833 473.602 138.833C470.959 138.833 468.816 140.975 468.816 143.619C468.816 146.262 470.959 148.405 473.602 148.405Z" fill="#3F3D56"/>
<path id="Vector_23" d="M483.725 173.895C483.95 175.132 483.93 176.401 483.664 177.629C483.399 178.858 482.894 180.023 482.179 181.056C481.464 182.09 480.552 182.973 479.495 183.654C478.439 184.335 477.259 184.802 476.022 185.027C474.785 185.252 473.516 185.231 472.287 184.966C471.059 184.701 469.894 184.196 468.86 183.481C467.827 182.766 466.944 181.854 466.263 180.797C465.581 179.741 465.115 178.56 464.89 177.324L464.886 177.305C463.945 172.103 467.967 170.262 473.169 169.32C478.371 168.379 482.783 168.693 483.725 173.895Z" fill="white"/>
</g>
<g id="b3">
<path id="Vector_25" d="M289.84 195.118C313.625 195.118 332.907 175.836 332.907 152.051C332.907 128.265 313.625 108.983 289.84 108.983C266.054 108.983 246.772 128.265 246.772 152.051C246.772 175.836 266.054 195.118 289.84 195.118Z" fill="#2F2E41"/>
<path id="Vector_26" d="M283.298 185.85H270.214V209.292H283.298V185.85Z" fill="#2F2E41"/>
<path id="Vector_27" d="M309.465 185.85H296.381V209.292H309.465V185.85Z" fill="#2F2E41"/>
<path id="Vector_28" d="M281.117 213.653C287.139 213.653 292.02 211.823 292.02 209.565C292.02 207.307 287.139 205.476 281.117 205.476C275.095 205.476 270.214 207.307 270.214 209.565C270.214 211.823 275.095 213.653 281.117 213.653Z" fill="#2F2E41"/>
<path id="Vector_29" d="M307.285 213.108C313.306 213.108 318.188 211.278 318.188 209.02C318.188 206.761 313.306 204.931 307.285 204.931C301.263 204.931 296.381 206.761 296.381 209.02C296.381 211.278 301.263 213.108 307.285 213.108Z" fill="#2F2E41"/>
<path id="Vector_31" d="M336.249 133.231C345.576 123.897 350.761 113.957 347.831 111.029C344.901 108.101 334.964 113.294 325.637 122.628C316.311 131.962 311.125 141.903 314.055 144.831C316.985 147.759 326.922 142.565 336.249 133.231Z" fill="#2F2E41"/>
<path id="Vector_32" d="M255.126 147.831C258.056 144.903 252.871 134.962 243.544 125.628C234.217 116.294 224.28 111.101 221.35 114.029C218.42 116.957 223.605 126.897 232.932 136.231C242.259 145.565 252.196 150.759 255.126 147.831Z" fill="#2F2E41"/>
<path id="Vector_34" d="M288.028 160.667C296.157 160.667 302.747 154.077 302.747 145.948C302.747 137.818 296.157 131.228 288.028 131.228C279.898 131.228 273.308 137.818 273.308 145.948C273.308 154.077 279.898 160.667 288.028 160.667Z" fill="white"/>
<path id="Vector_35" d="M288.028 150.854C290.737 150.854 292.934 148.657 292.934 145.948C292.934 143.238 290.737 141.041 288.028 141.041C285.318 141.041 283.121 143.238 283.121 145.948C283.121 148.657 285.318 150.854 288.028 150.854Z" fill="#3F3D56"/>
<path id="Vector_36" d="M299.712 173.17C300.167 175.668 299.611 178.244 298.166 180.331C296.721 182.419 294.507 183.847 292.009 184.302C289.511 184.757 286.935 184.201 284.847 182.756C282.76 181.311 281.331 179.097 280.877 176.599L280.873 176.58C279.932 171.378 283.954 169.537 289.156 168.596C294.358 167.654 298.77 167.968 299.712 173.17Z" fill="white"/>
</g>
</g>
</g>
<g id="Group 5">
<path id="Vector_9" d="M101.425 115.637C83.9081 115.395 66.8561 119.165 51.0739 126.769C50.8233 126.89 50.5484 126.936 50.2687 126.904C49.989 126.872 49.7113 126.762 49.4551 126.583C49.1989 126.403 48.9706 126.158 48.7862 125.865C48.6018 125.572 48.4658 125.239 48.3878 124.887L41.7945 95.0641L96.4741 82.9754L103.067 112.799C103.145 113.15 103.162 113.51 103.119 113.854C103.075 114.197 102.971 114.515 102.814 114.786C102.658 115.057 102.452 115.273 102.212 115.42C101.972 115.567 101.703 115.642 101.425 115.637Z" fill="#00B9AF"/>
<path id="Vector_12" d="M86.2046 62.0137C84.955 62.2884 83.7755 62.8393 82.7148 63.6437C79.892 59.0469 76.207 55.4355 72.0922 53.2335C67.9774 51.0315 63.6035 50.3302 59.4839 51.2119C55.3643 52.0937 51.6698 54.5218 48.8341 58.2114C45.9985 61.9011 44.1392 66.6991 43.4745 72.0424C41.5983 71.7777 39.7554 72.0977 38.1011 72.9755C36.4467 73.8532 35.0295 75.2629 33.9686 77.0859C32.9077 78.9089 32.2343 81.0917 32.0051 83.4505C31.776 85.8093 31.9977 88.2751 32.6517 90.6399C33.3057 93.0048 34.3728 95.1997 35.7631 97.0395C37.1533 98.8794 38.8261 100.31 40.6404 101.212C42.4548 102.114 44.3576 102.459 46.1885 102.22C48.0194 101.981 49.7248 101.164 51.1611 99.838C54.0326 103.424 57.4687 106.124 61.1555 107.691C64.8424 109.258 68.6625 109.643 72.2669 108.809C75.8714 107.976 79.1452 105.952 81.7895 102.921C84.4338 99.8905 86.3642 95.9501 87.4044 91.46C89.1439 92.1438 90.9328 92.3235 92.637 91.9856C94.3412 91.6477 95.9164 90.8009 97.2443 89.5088C98.5723 88.2167 99.6186 86.5129 100.305 84.5252C100.991 82.5375 101.299 80.3176 101.206 78.032C101.113 75.7464 100.621 73.4545 99.7669 71.3284C98.9132 69.2022 97.7199 67.297 96.2765 65.7557C94.833 64.2143 93.177 63.077 91.4326 62.4289C89.6882 61.7808 87.9008 61.6389 86.2046 62.0137Z" fill="#00B9AF"/>
<path id="Vector_19" d="M43.849 84.3684L43.5416 84.4364C42.6351 80.386 42.6559 76.1822 43.6024 72.1331L43.9091 72.2021C42.9731 76.2061 42.9526 80.3631 43.849 84.3684Z" fill="#3F3D56"/>
<path id="Vector_30" d="M87.4804 74.7223L87.267 74.7695C86.3891 70.7673 84.9212 66.944 82.966 63.5673L83.1311 63.3941C85.1083 66.8088 86.5927 70.6751 87.4804 74.7223Z" fill="#3F3D56"/>
<path id="Vector_33" d="M44.8755 108.721L44.7541 108.451C44.8184 108.416 51.2985 104.849 61.2309 101.594C70.3983 98.5902 84.4677 95.244 99.4338 96.3625L99.4367 96.6584C84.5074 95.5427 70.4686 98.8811 61.3204 101.879C51.4056 105.127 44.9396 108.685 44.8755 108.721Z" fill="#3F3D56"/>
<path id="Vector_37" d="M45.9548 113.603L45.8178 113.262C45.881 113.222 52.2486 109.147 62.1252 105.639C71.2411 102.403 85.2981 99.0002 100.497 101.174L100.516 101.54C85.354 99.3722 71.3277 102.767 62.2307 105.996C52.3716 109.497 46.0178 113.563 45.9548 113.603Z" fill="#3F3D56"/>
<path id="Vector_38" d="M46.8183 117.509L46.6969 117.239C46.7613 117.203 53.2413 113.637 63.1737 110.382C72.3411 107.378 86.4105 104.032 101.377 105.15L101.38 105.446C86.4502 104.331 72.4115 107.669 63.2632 110.666C53.3484 113.915 46.8825 117.473 46.8183 117.509Z" fill="#3F3D56"/>
<path id="Vector_39" d="M107.796 94.8104C108.066 94.7508 108.236 94.4839 108.176 94.2143C108.117 93.9447 107.85 93.7744 107.58 93.834C107.31 93.8936 107.14 94.1605 107.2 94.4302C107.259 94.6998 107.526 94.8701 107.796 94.8104Z" fill="#E6E6E6"/>
</g>
<g id="Group 6">
<path id="Vector_40" d="M311.747 116.473C294.314 114.739 277.003 117.043 260.63 123.275C260.37 123.374 260.093 123.397 259.817 123.341C259.541 123.285 259.273 123.152 259.033 122.951C258.793 122.751 258.587 122.487 258.428 122.18C258.269 121.872 258.162 121.528 258.114 121.171L254.086 90.8948L309.596 83.5079L313.625 113.784C313.672 114.141 313.659 114.501 313.586 114.84C313.513 115.178 313.383 115.487 313.204 115.743C313.025 115.999 312.801 116.198 312.549 116.324C312.298 116.45 312.024 116.501 311.747 116.473Z" fill="#BA63FF"/>
<path id="Vector_41" d="M301.15 61.7476C299.881 61.9148 298.659 62.3633 297.534 63.0744C295.113 58.2538 291.749 54.3417 287.836 51.7971C283.924 49.2526 279.626 48.1813 275.446 48.7089C271.266 49.2365 267.379 51.3411 264.239 54.7758C261.099 58.2104 258.838 62.8326 257.721 68.0998C255.874 67.6763 254.01 67.8382 252.287 68.5718C250.564 69.3054 249.032 70.5893 247.82 72.3153C246.607 74.0413 245.75 76.1588 245.321 78.4895C244.892 80.8202 244.903 83.2959 245.353 85.7079C245.803 88.1199 246.679 90.3976 247.908 92.3492C249.136 94.3008 250.681 95.8691 252.412 96.922C254.143 97.9749 256.009 98.4816 257.854 98.3993C259.699 98.317 261.467 97.6482 263.011 96.4492C265.567 100.267 268.761 103.249 272.301 105.125C275.841 107 279.614 107.709 283.276 107.186C286.939 106.663 290.373 104.925 293.266 102.13C296.159 99.3358 298.418 95.5743 299.837 91.1891C301.512 92.0186 303.279 92.35 305.005 92.1585C306.732 91.9669 308.374 91.2574 309.807 90.0832C311.24 88.9089 312.428 87.3004 313.281 85.3784C314.134 83.4564 314.63 81.2707 314.732 78.9855C314.833 76.7003 314.539 74.3748 313.869 72.1837C313.2 69.9925 312.173 67.9926 310.866 66.3339C309.559 64.6752 308.006 63.4009 306.323 62.6066C304.64 61.8123 302.872 61.5186 301.15 61.7476Z" fill="#BA63FF"/>
<path id="Vector_42" d="M257.044 80.413L256.732 80.4545C256.173 76.3417 256.552 72.1549 257.84 68.2012L258.14 68.296C256.866 72.2057 256.492 76.3459 257.044 80.413Z" fill="#3F3D56"/>
<path id="Vector_43" d="M301.338 74.5187L301.121 74.5475C300.588 70.4851 299.451 66.5506 297.79 63.0196L297.97 62.8611C299.649 66.4318 300.798 70.4105 301.338 74.5187Z" fill="#3F3D56"/>
<path id="Vector_44" d="M255.992 104.765L255.894 104.485C255.961 104.455 262.721 101.454 272.895 99.0568C282.285 96.8447 296.588 94.7091 311.405 97.0985L311.382 97.3935C296.602 95.0102 282.33 97.1405 272.96 99.3478C262.805 101.74 256.059 104.735 255.992 104.765Z" fill="#3F3D56"/>
<path id="Vector_45" d="M256.651 109.721L256.544 109.37C256.61 109.335 263.302 105.817 273.442 103.164C282.8 100.715 297.096 98.5224 312.055 101.983L312.042 102.35C297.12 98.8978 282.855 101.085 273.516 103.528C263.395 106.176 256.718 109.686 256.651 109.721Z" fill="#3F3D56"/>
<path id="Vector_46" d="M257.179 113.686L257.081 113.407C257.148 113.377 263.909 110.375 274.082 107.978C283.472 105.766 297.776 103.63 312.592 106.02L312.57 106.315C297.79 103.932 283.517 106.062 274.147 108.269C263.992 110.661 257.246 113.656 257.179 113.686Z" fill="#3F3D56"/>
<path id="Vector_47" d="M319.869 96.2644C320.142 96.2279 320.335 95.9765 320.298 95.7028C320.262 95.429 320.01 95.2367 319.737 95.2731C319.463 95.3095 319.271 95.561 319.307 95.8347C319.343 96.1084 319.595 96.3008 319.869 96.2644Z" fill="#E6E6E6"/>
</g>
<g id="Group 7">
<path id="Vector_48" d="M510.496 122.422C493.938 116.701 476.563 114.936 459.193 117.21C458.917 117.247 458.642 117.204 458.386 117.086C458.131 116.968 457.901 116.777 457.714 116.526C457.527 116.275 457.387 115.971 457.304 115.635C457.221 115.299 457.196 114.939 457.232 114.581L460.319 84.1948L516.032 89.8538L512.945 120.241C512.909 120.599 512.812 120.947 512.663 121.259C512.514 121.572 512.316 121.841 512.082 122.049C511.849 122.257 511.585 122.398 511.311 122.463C511.037 122.527 510.759 122.513 510.496 122.422Z" fill="#FF69B6"/>
<path id="Vector_49" d="M512.851 66.7298C511.578 66.5988 510.285 66.7528 509.026 67.1838C507.786 61.9338 505.419 57.3494 502.202 53.9686C498.985 50.5878 495.051 48.5509 490.863 48.0969C486.674 47.6429 482.405 48.7906 478.556 51.4055C474.706 54.0203 471.437 57.9937 469.131 62.8598C467.432 62.0198 465.582 61.7458 463.736 62.0608C461.89 62.3758 460.102 63.2708 458.523 64.6688C456.944 66.0678 455.62 67.9298 454.663 70.0978C453.706 72.2658 453.144 74.6768 453.024 77.1278C452.904 79.5778 453.229 81.9968 453.973 84.1798C454.716 86.3628 455.856 88.2458 457.296 89.6708C458.737 91.0958 460.435 92.0208 462.249 92.3668C464.062 92.7138 465.938 92.4728 467.717 91.6638C469.32 95.9688 471.737 99.6098 474.747 102.254C477.757 104.898 481.264 106.46 484.948 106.799C488.631 107.137 492.375 106.241 495.836 104.192C499.297 102.143 502.365 99.0058 504.76 95.0688C506.198 96.2628 507.84 96.9938 509.564 97.2078C511.289 97.4208 513.05 97.1108 514.716 96.2998C516.382 95.4888 517.91 94.1988 519.184 92.5268C520.459 90.8538 521.447 88.8428 522.075 86.6428C522.703 84.4438 522.954 82.1128 522.81 79.8258C522.666 77.5398 522.13 75.3568 521.242 73.4398C520.355 71.5238 519.139 69.9248 517.685 68.7628C516.232 67.6008 514.579 66.9058 512.851 66.7298Z" fill="#FF69B6"/>
<path id="Vector_50" d="M465.623 74.6818L465.31 74.6498C465.718 70.5198 467.056 66.5338 469.224 62.9858L469.493 63.1468C467.349 66.6558 466.027 70.5968 465.623 74.6818Z" fill="#3F3D56"/>
<path id="Vector_51" d="M510.079 79.1978L509.861 79.1758C510.282 75.0998 510.087 71.0098 509.289 67.1898L509.5 67.0778C510.307 70.9398 510.505 75.0768 510.079 79.1978Z" fill="#3F3D56"/>
<path id="Vector_52" d="M458.964 98.1288L458.934 97.8348C459.006 97.8208 466.277 96.4648 476.729 96.4878C486.376 96.5088 500.786 97.7408 514.647 103.495L514.557 103.776C500.73 98.0368 486.352 96.8068 476.725 96.7858C466.292 96.7628 459.036 98.1148 458.964 98.1288Z" fill="#3F3D56"/>
<path id="Vector_53" d="M458.459 103.103L458.436 102.737C458.508 102.718 465.832 100.844 476.311 100.61C485.982 100.393 500.397 101.568 514.149 108.397L514.052 108.751C500.333 101.939 485.95 100.766 476.299 100.982C465.839 101.215 458.531 103.085 458.459 103.103Z" fill="#3F3D56"/>
<path id="Vector_54" d="M458.055 107.083L458.024 106.788C458.096 106.775 465.368 105.419 475.82 105.442C485.467 105.463 499.876 106.695 513.737 112.449L513.647 112.73C499.82 106.991 485.442 105.761 475.815 105.74C465.382 105.717 458.127 107.069 458.055 107.083Z" fill="#3F3D56"/>
<path id="Vector_55" d="M523.074 104.642C523.349 104.67 523.594 104.47 523.622 104.195C523.65 103.92 523.45 103.675 523.175 103.647C522.9 103.619 522.655 103.819 522.627 104.094C522.599 104.369 522.799 104.614 523.074 104.642Z" fill="#E6E6E6"/>
</g>
</g>
</g>
</svg>
