<svg class="buddies2" width="558" height="257" viewBox="0 0 558 257" fill="none" xmlns="http://www.w3.org/2000/svg">
<g id="buddies 1">
<g id="Group 4">
<g id="b1">
<path id="Vector" d="M129.242 122.942C133.488 111.833 134.103 101.747 130.616 100.414C127.128 99.0814 120.859 107.006 116.613 118.115C112.367 129.224 111.752 139.31 115.239 140.643C118.727 141.976 124.996 134.051 129.242 122.942Z" fill="#2F2E41"/>
<path id="Vector_2" d="M83.1203 196.118C106.906 196.118 126.188 176.836 126.188 153.051C126.188 129.266 106.906 109.984 83.1203 109.984C59.3349 109.984 40.053 129.266 40.053 153.051C40.053 176.836 59.3349 196.118 83.1203 196.118Z" fill="#2F2E41"/>
<path id="Vector_3" d="M76.5784 186.851H63.4946V210.292H76.5784V186.851Z" fill="#2F2E41"/>
<path id="Vector_4" d="M102.746 186.851H89.6621V210.292H102.746V186.851Z" fill="#2F2E41"/>
<path id="Vector_5" d="M74.3979 214.654C80.4195 214.654 85.301 212.823 85.301 210.565C85.301 208.307 80.4195 206.476 74.3979 206.476C68.3763 206.476 63.4948 208.307 63.4948 210.565C63.4948 212.823 68.3763 214.654 74.3979 214.654Z" fill="#2F2E41"/>
<path id="Vector_6" d="M100.565 214.108C106.587 214.108 111.469 212.278 111.469 210.02C111.469 207.762 106.587 205.931 100.565 205.931C94.5436 205.931 89.6621 207.762 89.6621 210.02C89.6621 212.278 94.5436 214.108 100.565 214.108Z" fill="#2F2E41"/>
<path id="Vector_7" d="M84.2107 156.867C92.3399 156.867 98.9299 150.277 98.9299 142.148C98.9299 134.019 92.3399 127.429 84.2107 127.429C76.0815 127.429 69.4915 134.019 69.4915 142.148C69.4915 150.277 76.0815 156.867 84.2107 156.867Z" fill="white"/>
<path id="Vector_8" d="M84.2107 147.054C86.9204 147.054 89.1171 144.858 89.1171 142.148C89.1171 139.438 86.9204 137.241 84.2107 137.241C81.5009 137.241 79.3042 139.438 79.3042 142.148C79.3042 144.858 81.5009 147.054 84.2107 147.054Z" fill="#3F3D56"/>
<path id="Vector_9" d="M41.3435 112.999C37.866 97.4256 48.9822 81.689 66.1721 77.8506C83.3621 74.0123 100.116 83.5257 103.594 99.0995C107.071 114.673 95.6789 120.417 78.489 124.255C61.299 128.094 44.821 128.573 41.3435 112.999Z" fill="#F9F24B"/>
<path id="Vector_10" d="M54.0685 142.295C55.6684 138.922 48.2545 132.056 37.5091 126.96C26.7636 121.863 16.7557 120.466 15.1558 123.84C13.5559 127.213 20.9698 134.079 31.7152 139.175C42.4606 144.272 52.4686 145.669 54.0685 142.295Z" fill="#2F2E41"/>
<path id="Vector_11" d="M61.9658 168.588C61.9658 172.803 72.819 181.126 84.8623 181.126C96.9056 181.126 108.198 169.259 108.198 165.044C108.198 160.829 96.9055 165.862 84.8623 165.862C72.8191 165.862 61.9658 164.373 61.9658 168.588Z" fill="white"/>
</g>
<g id="b2">
<path id="Vector_13" d="M542.787 218.342C545.65 215.945 541.781 206.61 534.147 197.491C526.512 188.373 518.002 182.924 515.14 185.32C512.277 187.717 516.146 197.052 523.78 206.171C531.415 215.289 539.925 220.738 542.787 218.342Z" fill="#2F2E41"/>
<path id="Vector_14" d="M483.156 237.42C506.942 237.42 526.224 218.139 526.224 194.353C526.224 170.568 506.942 151.286 483.156 151.286C459.371 151.286 440.089 170.568 440.089 194.353C440.089 218.139 459.371 237.42 483.156 237.42Z" fill="#2F2E41"/>
<path id="Vector_15" d="M501.385 228.153H488.301V251.594H501.385V228.153Z" fill="#2F2E41"/>
<path id="Vector_16" d="M475.218 228.153H462.134V251.594H475.218V228.153Z" fill="#2F2E41"/>
<path id="Vector_17" d="M490.482 255.956C496.504 255.956 501.385 254.125 501.385 251.867C501.385 249.609 496.504 247.778 490.482 247.778C484.46 247.778 479.579 249.609 479.579 251.867C479.579 254.125 484.46 255.956 490.482 255.956Z" fill="#2F2E41"/>
<path id="Vector_18" d="M464.315 255.41C470.336 255.41 475.218 253.58 475.218 251.322C475.218 249.064 470.336 247.233 464.315 247.233C458.293 247.233 453.411 249.064 453.411 251.322C453.411 253.58 458.293 255.41 464.315 255.41Z" fill="#2F2E41"/>
<path id="Vector_19" d="M469.634 140.216C473.479 124.729 490.454 115.615 507.548 119.86C524.642 124.105 535.383 140.1 531.537 155.587C527.691 171.074 514.933 171.124 497.839 166.88C480.745 162.635 465.788 155.703 469.634 140.216Z" fill="#BA63FF"/>
<path id="Vector_20" d="M454.104 183.597C455.704 180.224 448.29 173.358 437.545 168.262C426.8 163.165 416.792 161.768 415.192 165.142C413.592 168.515 421.006 175.381 431.751 180.477C442.497 185.574 452.505 186.971 454.104 183.597Z" fill="#2F2E41"/>
<path id="Vector_21" d="M476.718 199.624C484.648 199.624 491.076 193.196 491.076 185.266C491.076 177.335 484.648 170.907 476.718 170.907C468.788 170.907 462.359 177.335 462.359 185.266C462.359 193.196 468.788 199.624 476.718 199.624Z" fill="white"/>
<path id="Vector_22" d="M470.816 184.905C473.46 184.905 475.603 182.762 475.603 180.119C475.603 177.475 473.46 175.333 470.816 175.333C468.173 175.333 466.03 177.475 466.03 180.119C466.03 182.762 468.173 184.905 470.816 184.905Z" fill="#3F3D56"/>
<path id="Vector_23" d="M485.725 215.181C485.95 216.418 485.93 217.687 485.664 218.915C485.399 220.144 484.894 221.309 484.179 222.342C483.464 223.376 482.552 224.259 481.495 224.94C480.439 225.621 479.259 226.088 478.022 226.313C476.785 226.538 475.516 226.517 474.287 226.252C473.059 225.987 471.894 225.482 470.86 224.767C469.827 224.052 468.944 223.14 468.263 222.083C467.581 221.027 467.115 219.846 466.89 218.61L466.886 218.591C465.945 213.389 469.967 211.548 475.169 210.606C480.371 209.665 484.783 209.979 485.725 215.181Z" fill="white"/>
<path id="Vector_24" d="M556.839 256.179H399.839C399.574 256.179 399.319 256.073 399.132 255.886C398.944 255.698 398.839 255.444 398.839 255.179C398.839 254.914 398.944 254.659 399.132 254.472C399.319 254.284 399.574 254.179 399.839 254.179H556.839C557.104 254.179 557.358 254.284 557.546 254.472C557.733 254.659 557.839 254.914 557.839 255.179C557.839 255.444 557.733 255.698 557.546 255.886C557.358 256.073 557.104 256.179 556.839 256.179Z" fill="#CCCCCC"/>
</g>
<g id="b3">
<path id="Vector_25" d="M289.84 195.118C313.625 195.118 332.907 175.836 332.907 152.051C332.907 128.265 313.625 108.983 289.84 108.983C266.054 108.983 246.772 128.265 246.772 152.051C246.772 175.836 266.054 195.118 289.84 195.118Z" fill="#2F2E41"/>
<path id="Vector_26" d="M283.298 185.85H270.214V209.292H283.298V185.85Z" fill="#2F2E41"/>
<path id="Vector_27" d="M309.465 185.85H296.381V209.292H309.465V185.85Z" fill="#2F2E41"/>
<path id="Vector_28" d="M281.117 213.653C287.139 213.653 292.02 211.823 292.02 209.565C292.02 207.307 287.139 205.476 281.117 205.476C275.095 205.476 270.214 207.307 270.214 209.565C270.214 211.823 275.095 213.653 281.117 213.653Z" fill="#2F2E41"/>
<path id="Vector_29" d="M307.285 213.108C313.306 213.108 318.188 211.278 318.188 209.02C318.188 206.761 313.306 204.931 307.285 204.931C301.263 204.931 296.381 206.761 296.381 209.02C296.381 211.278 301.263 213.108 307.285 213.108Z" fill="#2F2E41"/>
<path id="Vector_30" d="M248.063 111.999C244.585 96.4256 255.701 80.689 272.891 76.8506C290.081 73.0122 306.836 82.5257 310.313 98.0995C313.791 113.673 302.398 119.417 285.208 123.256C268.018 127.094 251.54 127.573 248.063 111.999Z" fill="#FF69B6"/>
<path id="Vector_31" d="M336.249 133.231C345.576 123.897 350.761 113.957 347.831 111.029C344.901 108.101 334.964 113.294 325.637 122.628C316.311 131.962 311.125 141.903 314.055 144.831C316.985 147.759 326.922 142.565 336.249 133.231Z" fill="#2F2E41"/>
<path id="Vector_32" d="M255.126 147.831C258.056 144.903 252.871 134.962 243.544 125.628C234.217 116.294 224.28 111.101 221.35 114.029C218.42 116.957 223.605 126.897 232.932 136.231C242.259 145.565 252.196 150.759 255.126 147.831Z" fill="#2F2E41"/>
<path id="Vector_34" d="M288.028 160.667C296.157 160.667 302.747 154.077 302.747 145.948C302.747 137.818 296.157 131.228 288.028 131.228C279.898 131.228 273.308 137.818 273.308 145.948C273.308 154.077 279.898 160.667 288.028 160.667Z" fill="white"/>
<path id="Vector_35" d="M288.028 150.854C290.737 150.854 292.934 148.657 292.934 145.948C292.934 143.238 290.737 141.041 288.028 141.041C285.318 141.041 283.121 143.238 283.121 145.948C283.121 148.657 285.318 150.854 288.028 150.854Z" fill="#3F3D56"/>
<path id="Vector_36" d="M299.712 173.17C300.167 175.668 299.611 178.244 298.166 180.331C296.721 182.419 294.507 183.847 292.009 184.302C289.511 184.757 286.935 184.201 284.847 182.756C282.76 181.311 281.331 179.097 280.877 176.599L280.873 176.58C279.932 171.378 283.954 169.537 289.156 168.596C294.358 167.654 298.77 167.968 299.712 173.17Z" fill="white"/>
</g>
</g>
</g>
</svg>
