<svg width="646" height="751" viewBox="0 0 646 751" fill="none" xmlns="http://www.w3.org/2000/svg">
<g id="circlesmain2right 2">
<g id="circlesmain2right 1">
<g id="Group 1">
<g id="c2">
<path id="Vector_4" d="M470.111 744.276C559.09 744.276 631.222 671.908 631.222 582.638C631.222 493.368 559.09 421 470.111 421C381.132 421 309 493.368 309 582.638C309 671.908 381.132 744.276 470.111 744.276Z" fill="#FF64D5"/>
</g>
<g id="c2_3">
<path id="Vector_4_3" d="M420 305C447.614 305 470 282.614 470 255C470 227.386 447.614 205 420 205C392.386 205 370 227.386 370 255C370 282.614 392.386 305 420 305Z" fill="#FF9E52"/>
</g>
<g id="c2_4">
<path id="Vector_4_4" d="M114 658C155.421 658 189 624.421 189 583C189 541.579 155.421 508 114 508C72.5789 508 39 541.579 39 583C39 624.421 72.5789 658 114 658Z" fill="#37FF98"/>
</g>
<g id="c2_5">
<path id="Vector_4_5" d="M239.667 635.397C245.005 635.397 249.333 631.054 249.333 625.698C249.333 620.342 245.005 616 239.667 616C234.328 616 230 620.342 230 625.698C230 631.054 234.328 635.397 239.667 635.397Z" fill="#008BFF"/>
</g>
<g id="c2_6_2">
<path id="Vector_4_6_2" d="M510.501 374C517.403 374 523 368.402 523 361.499C523 354.596 517.403 349 510.501 349C503.597 349 498 354.596 498 361.499C498 368.402 503.597 374 510.501 374Z" fill="#5BFFEB"/>
</g>
<g id="c2_6_3">
<path id="Vector_4_6_3" d="M387.5 141C391.642 141 395 137.641 395 133.5C395 129.358 391.642 126 387.5 126C383.358 126 380 129.358 380 133.5C380 137.641 383.358 141 387.5 141Z" fill="#FF5B5B"/>
</g>
<g id="c2_7">
<path id="Vector_4_7" d="M274 471C287.807 471 299 459.807 299 446C299 432.193 287.807 421 274 421C260.193 421 249 432.193 249 446C249 459.807 260.193 471 274 471Z" fill="#FBFFA6"/>
</g>
<g id="c2_7_2">
<path id="Vector_4_7_2" d="M504 97C517.807 97 529 85.807 529 72C529 58.193 517.807 47 504 47C490.193 47 479 58.193 479 72C479 85.807 490.193 97 504 97Z" fill="#63BDFF"/>
</g>
<g id="Group 2">
<path id="Vector_4_6" d="M26.667 702.397C32.005 702.397 36.333 698.054 36.333 692.698C36.333 687.342 32.005 683 26.667 683C21.328 683 17 687.342 17 692.698C17 698.054 21.328 702.397 26.667 702.397Z" fill="#C37EFF"/>
</g>
</g>
</g>
</g>
</svg>
