<svg class="main2__crcls" width="471" height="454" viewBox="0 0 471 454" fill="none" xmlns="http://www.w3.org/2000/svg">
<g id="Group 1">
<g id="c2">
<path id="Vector_4" d="M161.556 323.741C250.534 323.741 322.667 251.373 322.667 162.103C322.667 72.8338 250.534 0.465515 161.556 0.465515C72.5768 0.465515 0.444458 72.8338 0.444458 162.103C0.444458 251.373 72.5768 323.741 161.556 323.741Z" fill="#00FF93"/>
</g>
<g id="crcl11">
<path id="Vector_4_2" d="M316.333 453.172C359.043 453.172 393.667 418.435 393.667 375.586C393.667 332.736 359.043 298 316.333 298C273.623 298 239 332.736 239 375.586C239 418.435 273.623 453.172 316.333 453.172Z" fill="#FF7FF3"/>
</g>
<g id="crcl10">
<path id="Vector_4_3" d="M461.222 323.741C466.561 323.741 470.889 319.399 470.889 314.043C470.889 308.687 466.561 304.345 461.222 304.345C455.883 304.345 451.556 308.687 451.556 314.043C451.556 319.399 455.883 323.741 461.222 323.741Z" fill="#9A21FF"/>
</g>
<g id="crcl9">
<path id="Vector_4_4" d="M188.5 432C192.642 432 196 428.642 196 424.5C196 420.358 192.642 417 188.5 417C184.358 417 181 420.358 181 424.5C181 428.642 184.358 432 188.5 432Z" fill="#FF873D"/>
</g>
<g id="crcl8">
<path id="Vector_4_5" d="M445.112 279.328C454.009 279.328 461.223 272.091 461.223 263.164C461.223 254.237 454.009 247 445.112 247C436.214 247 429 254.237 429 263.164C429 272.091 436.214 279.328 445.112 279.328Z" fill="#FFF300"/>
</g>
<g id="crcl7">
<path id="Vector_4_4_2" d="M393.667 288.396C399.005 288.396 403.333 284.054 403.333 278.698C403.333 273.342 399.005 269 393.667 269C388.328 269 384 273.342 384 278.698C384 284.054 388.328 288.396 393.667 288.396Z" fill="#00EBDD"/>
</g>
</g>
</svg>
