<svg width="650" height="800" viewBox="0 0 650 800" fill="none" xmlns="http://www.w3.org/2000/svg">
<g id="Group 1">
<mask id="mask0_2_2" style="mask-type:alpha" maskUnits="userSpaceOnUse" x="0" y="0" width="650" height="800">
<g id="mask0_2_173">
<path id="Rectangle 1" d="M650 0H0V800H650V0Z" fill="#C4C4C4"/>
</g>
</mask>
<g mask="url(#mask0_2_2)">
<g id="crcl6">
<g id="c5">
<path id="Vector" d="M576 65C584.284 65 591 58.2843 591 50C591 41.7157 584.284 35 576 35C567.716 35 561 41.7157 561 50C561 58.2843 567.716 65 576 65Z" fill="#00C2DD"/>
</g>
</g>
<g id="crcl5">
<g id="c4">
<path id="Vector_2" d="M532 193C540.284 193 547 186.284 547 178C547 169.716 540.284 163 532 163C523.716 163 517 169.716 517 178C517 186.284 523.716 193 532 193Z" fill="#FF69B6"/>
</g>
</g>
<g id="Group 4">
<g id="crcl3">
<path id="Vector_3" d="M515 95C520.523 95 525 90.5229 525 85C525 79.4771 520.523 75 515 75C509.477 75 505 79.4771 505 85C505 90.5229 509.477 95 515 95Z" fill="#FF009B"/>
</g>
</g>
<g id="crcl2">
<g id="c2">
<path id="Vector_4" d="M396 280C435.212 280 467 248.212 467 209C467 169.788 435.212 138 396 138C356.788 138 325 169.788 325 209C325 248.212 356.788 280 396 280Z" fill="#27F879"/>
</g>
</g>
<g id="crcl1">
<g id="c1">
<path id="Vector_5" d="M636 800C774.071 800 886 688.071 886 550C886 411.929 774.071 300 636 300C497.929 300 386 411.929 386 550C386 688.071 497.929 800 636 800Z" fill="#D36CFF"/>
</g>
</g>
</g>
</g>
</svg>
