<svg width="700" height="800" viewBox="0 0 700 800" fill="none" xmlns="http://www.w3.org/2000/svg">
<g id="Group 1">
<mask id="mask0_4_29" style="mask-type:alpha" maskUnits="userSpaceOnUse" x="0" y="0" width="700" height="800">
<rect id="Rectangle 1" width="700" height="800" fill="#D9D9D9"/>
</mask>
<g mask="url(#mask0_4_29)">
<g id="contact__leftCrcls0">
<g id="c2_6">
<path id="Vector_4_6" d="M100.005 200C155.227 200 200 155.22 200 99.9952C200 44.7695 155.227 0 100.005 0C44.7733 0 0 44.7695 0 99.9952C0 155.22 44.7733 200 100.005 200Z" fill="#74FE71"/>
</g>
</g>
<g id="contactcrcls9">
<g id="c2_6_2">
<path id="Vector_4_6_2" d="M285.002 246C307.091 246 325 228.088 325 205.998C325 183.908 307.091 166 285.002 166C262.909 166 245 183.908 245 205.998C245 228.088 262.909 246 285.002 246Z" fill="#71EBFE"/>
</g>
</g>
<g id="contactcrcls8">
<g id="c2_6_3">
<path id="Vector_4_6_3" d="M299.003 430C332.136 430 359 403.132 359 369.997C359 336.862 332.136 310 299.003 310C265.864 310 239 336.862 239 369.997C239 403.132 265.864 430 299.003 430Z" fill="#F4FF77"/>
</g>
</g>
<g id="contactcrcls7">
<g id="c2_6_4">
<path id="Vector_4_6_4" d="M575.002 498C599.852 498 620 477.849 620 452.998C620 428.146 599.852 408 575.002 408C550.148 408 530 428.146 530 452.998C530 477.849 550.148 498 575.002 498Z" fill="#FF66D1"/>
</g>
</g>
<g id="contactcrcls6">
<g id="c2_6_5">
<path id="Vector_4_6_5" d="M453.001 409C469.568 409 483 395.566 483 378.999C483 362.431 469.568 349 453.001 349C436.432 349 423 362.431 423 378.999C423 395.566 436.432 409 453.001 409Z" fill="#5BFFD5"/>
</g>
</g>
<g id="contactcrcls5">
<g id="c2_6_6">
<path id="Vector_4_6_6" d="M391.001 98C399.284 98 406 91.283 406 82.9993C406 74.7154 399.284 68 391.001 68C382.716 68 376 74.7154 376 82.9993C376 91.283 382.716 98 391.001 98Z" fill="#FF605B"/>
</g>
</g>
<g id="contactcrcls4">
<g id="c2_6_7">
<path id="Vector_4_6_7" d="M584 145C589.523 145 594 140.522 594 135C594 129.477 589.523 125 584 125C578.477 125 574 129.477 574 135C574 140.522 578.477 145 584 145Z" fill="#C1FF5B"/>
</g>
</g>
<g id="contactcrcls3">
<g id="c2_6_8">
<path id="Vector_4_6_8" d="M31.001 278C42.0453 278 51 269.044 51 257.999C51 246.954 42.0453 238 31.001 238C19.9547 238 11 246.954 11 257.999C11 269.044 19.9547 278 31.001 278Z" fill="#FFD25B"/>
</g>
</g>
<g id="contact__rightCrcls">
<g id="c2_6_9">
<path id="Vector_4_6_9" d="M135.001 704C143.284 704 150 697.283 150 688.999C150 680.715 143.284 674 135.001 674C126.716 674 120 680.715 120 688.999C120 697.283 126.716 704 135.001 704Z" fill="#5B7EFF"/>
</g>
</g>
<g id="contact__leftCrcls">
<g id="c2_6_10">
<path id="Vector_4_6_10" d="M324.001 567C332.284 567 339 560.283 339 551.999C339 543.715 332.284 537 324.001 537C315.716 537 309 543.715 309 551.999C309 560.283 315.716 567 324.001 567Z" fill="#CD80FF"/>
</g>
</g>
</g>
</g>
</svg>
