<svg width="700" height="800" viewBox="0 0 700 800" fill="none" xmlns="http://www.w3.org/2000/svg">
<g id="Group 1">
<mask id="mask0_4_29" style="mask-type:alpha" maskUnits="userSpaceOnUse" x="0" y="0" width="700" height="800">
<rect id="Rectangle 1" width="700" height="800" fill="#D9D9D9"/>
</mask>
<g mask="url(#mask0_4_29)">
<g id="contact__rightCrcls0">
<g id="c2_6">
<path id="Vector_4_6" d="M141.005 715C196.227 715 241 670.22 241 614.995C241 559.77 196.227 515 141.005 515C85.7733 515 41 559.77 41 614.995C41 670.22 85.7733 715 141.005 715Z" fill="#FF9C45"/>
</g>
</g>
<g id="contact__leftCrcls9">
<g id="c2_6_2">
<path id="Vector_4_6_2" d="M172.002 112C194.091 112 212 94.088 212 71.9981C212 49.9078 194.091 32 172.002 32C149.909 32 132 49.9078 132 71.9981C132 94.088 149.909 112 172.002 112Z" fill="#8945FF"/>
</g>
</g>
<g id="contact__leftCrcls8">
<g id="c2_6_3">
<path id="Vector_4_6_3" d="M317.003 354C350.136 354 377 327.132 377 293.997C377 260.862 350.136 234 317.003 234C283.864 234 257 260.862 257 293.997C257 327.132 283.864 354 317.003 354Z" fill="#45F7FF"/>
</g>
</g>
<g id="contact__leftCrcls7">
<g id="c2_6_4">
<path id="Vector_4_6_4" d="M575.002 498C599.852 498 620 477.849 620 452.998C620 428.146 599.852 408 575.002 408C550.148 408 530 428.146 530 452.998C530 477.849 550.148 498 575.002 498Z" fill="#FF66D1"/>
</g>
</g>
<g id="contact__leftCrcls6">
<g id="c2_6_5">
<path id="Vector_4_6_5" d="M607.001 96C623.568 96 637 82.566 637 65.9986C637 49.4309 623.568 36 607.001 36C590.432 36 577 49.4309 577 65.9986C577 82.566 590.432 96 607.001 96Z" fill="#5BFFD5"/>
</g>
</g>
<g id="contact__leftCrcls5">
<g id="c2_6_6">
<path id="Vector_4_6_6" d="M389.001 122C397.284 122 404 115.283 404 106.999C404 98.7154 397.284 92 389.001 92C380.716 92 374 98.7154 374 106.999C374 115.283 380.716 122 389.001 122Z" fill="#FF605B"/>
</g>
</g>
<g id="contact__leftCrcls4">
<g id="c2_6_7">
<path id="Vector_4_6_7" d="M534 335C539.523 335 544 330.522 544 325C544 319.477 539.523 315 534 315C528.477 315 524 319.477 524 325C524 330.522 528.477 335 534 335Z" fill="#C1FF5B"/>
</g>
</g>
<g id="contact__leftCrcls3">
<g id="c2_6_8">
<path id="Vector_4_6_8" d="M44.001 299C55.0453 299 64 290.044 64 278.999C64 267.954 55.0453 259 44.001 259C32.9547 259 24 267.954 24 278.999C24 290.044 32.9547 299 44.001 299Z" fill="#CCFF45"/>
</g>
</g>
<g id="contact__leftCrcls2">
<g id="c2_6_9">
<path id="Vector_4_6_9" d="M415.001 742C423.284 742 430 735.283 430 726.999C430 718.715 423.284 712 415.001 712C406.716 712 400 718.715 400 726.999C400 735.283 406.716 742 415.001 742Z" fill="#5B7EFF"/>
</g>
</g>
<g id="contact__leftCrcls1">
<g id="c2_6_10">
<path id="Vector_4_6_10" d="M365.001 496C373.284 496 380 489.283 380 480.999C380 472.715 373.284 466 365.001 466C356.716 466 350 472.715 350 480.999C350 489.283 356.716 496 365.001 496Z" fill="#CD80FF"/>
</g>
</g>
</g>
</g>
</svg>
