<svg width="139" height="137" viewBox="0 0 139 137" fill="none" xmlns="http://www.w3.org/2000/svg">
<g id="mancha azul bajo 1">
<path id="Vector" d="M47 136C71.8528 136 92 115.853 92 91C92 66.1472 71.8528 46 47 46C22.1472 46 2 66.1472 2 91C2 115.853 22.1472 136 47 136Z" fill="#A1F5FF"/>
<path id="Vector_2" d="M92 119C116.853 119 137 98.8528 137 74C137 49.1472 116.853 29 92 29C67.1472 29 47 49.1472 47 74C47 98.8528 67.1472 119 92 119Z" fill="#A1F5FF"/>
<path id="Vector_3" d="M47 91C71.8528 91 92 70.8528 92 46C92 21.1472 71.8528 1 47 1C22.1472 1 2 21.1472 2 46C2 70.8528 22.1472 91 47 91Z" fill="#A1F5FF"/>
</g>
</svg>
