<svg width="522" height="926" viewBox="0 0 522 926" fill="none" xmlns="http://www.w3.org/2000/svg">
<g id="Mask group">
<mask id="mask0_2_3" style="mask-type:alpha" maskUnits="userSpaceOnUse" x="0" y="0" width="522" height="926">
<rect id="Rectangle 1" width="522" height="926" fill="#D9D9D9"/>
</mask>
<g mask="url(#mask0_2_3)">
<g id="crcl22">
<path id="Vector_4_6" d="M97.685 731.489C103.584 731.489 108.368 726.678 108.368 720.744C108.368 714.81 103.584 710 97.685 710C91.784 710 87 714.81 87 720.744C87 726.678 91.784 731.489 97.685 731.489Z" fill="#F9FF81"/>
</g>
<g id="crcl21">
<path id="Vector_4" d="M267 702C377.457 702 467 612.457 467 502C467 391.543 377.457 302 267 302C156.543 302 67 391.543 67 502C67 612.457 156.543 702 267 702Z" fill="#FF91FC"/>
</g>
<g id="crcl20">
<path id="Vector_4_2" d="M91.2105 300.628C115.627 300.628 135.421 280.788 135.421 256.314C135.421 231.841 115.627 212 91.2105 212C66.7942 212 47 231.841 47 256.314C47 280.788 66.7942 300.628 91.2105 300.628Z" fill="#00EBDD"/>
</g>
<g id="crcl19">
<path id="Vector_4_3" d="M268 135C301.137 135 328 108.137 328 75C328 41.8632 301.137 15 268 15C234.863 15 208 41.8632 208 75C208 108.137 234.863 135 268 135Z" fill="#54BEFF"/>
</g>
<g id="crcl18">
<path id="Vector_4_4" d="M429 914C456.614 914 479 891.614 479 864C479 836.386 456.614 814 429 814C401.386 814 379 836.386 379 864C379 891.614 401.386 914 429 914Z" fill="#8CFF81"/>
</g>
<g id="crcl17">
<path id="Vector_4_5" d="M87.0014 896C95.2834 896 102 889.284 102 880.999C102 872.715 95.2834 866 87.0014 866C78.7166 866 72 872.715 72 880.999C72 889.284 78.7166 896 87.0014 896Z" fill="#73ECFF"/>
</g>
<g id="crcl16">
<path id="Vector_4_5_2" d="M353.502 753C363.164 753 371 745.164 371 735.499C371 725.834 363.164 718 353.502 718C343.836 718 336 725.834 336 735.499C336 745.164 343.836 753 353.502 753Z" fill="#73FFF4"/>
</g>
<g id="crcl15">
<path id="Vector_4_6_2" d="M179.501 784C186.403 784 192 778.403 192 771.499C192 764.596 186.403 759 179.501 759C172.597 759 167 764.596 167 771.499C167 778.403 172.597 784 179.501 784Z" fill="#73FF73"/>
</g>
<g id="crcl14">
<path id="Vector_4_6_3" d="M422.501 241C429.403 241 435 235.403 435 228.499C435 221.596 429.403 216 422.501 216C415.597 216 410 221.596 410 228.499C410 235.403 415.597 241 422.501 241Z" fill="#FFE573"/>
</g>
<g id="crcl13">
<path id="Vector_4_6_4" d="M273.501 843C280.403 843 286 837.403 286 830.499C286 823.596 280.403 818 273.501 818C266.597 818 261 823.596 261 830.499C261 837.403 266.597 843 273.501 843Z" fill="#F662FF"/>
</g>
<g id="crcl12">
<path id="Vector_4_6_5" d="M181.501 190C188.403 190 194 184.403 194 177.499C194 170.596 188.403 165 181.501 165C174.597 165 169 170.596 169 177.499C169 184.403 174.597 190 181.501 190Z" fill="#91FFD7"/>
</g>
</g>
</g>
</svg>
