<svg width="313" height="890" viewBox="0 0 313 890" fill="none" xmlns="http://www.w3.org/2000/svg">
<g id="Mask group">
<mask id="mask0_2_3" style="mask-type:alpha" maskUnits="userSpaceOnUse" x="0" y="0" width="313" height="890">
<rect id="Rectangle 1" width="313" height="890" fill="#D9D9D9"/>
</mask>
<g mask="url(#mask0_2_3)">
<g id="circle31">
<path id="Vector_4_3" d="M249 246C282.137 246 309 219.137 309 186C309 152.863 282.137 126 249 126C215.863 126 189 152.863 189 186C189 219.137 215.863 246 249 246Z" fill="#8A89FF"/>
</g>
<g id="circle30">
<path id="Vector_4_4" d="M154 426C181.614 426 204 403.614 204 376C204 348.386 181.614 326 154 326C126.386 326 104 348.386 104 376C104 403.614 126.386 426 154 426Z" fill="#FFB8FB"/>
</g>
<g id="circle30_2">
<path id="Vector_4_4_2" d="M104.5 112C127.972 112 147 92.9719 147 69.5C147 46.0281 127.972 27 104.5 27C81.0281 27 62 46.0281 62 69.5C62 92.9719 81.0281 112 104.5 112Z" fill="#FEFE6A"/>
</g>
<g id="circle29">
<path id="Vector_4_5" d="M83.001 878C88.523 878 93 873.522 93 867.999C93 862.477 88.523 858 83.001 858C77.477 858 73 862.477 73 867.999C73 873.522 77.477 878 83.001 878Z" fill="#FFB7B7"/>
</g>
<g id="Group 2">
<path id="Vector_4_5_2_2" d="M158.001 820C163.523 820 168 815.522 168 809.999C168 804.477 163.523 800 158.001 800C152.477 800 148 804.477 148 809.999C148 815.522 152.477 820 158.001 820Z" fill="#62FF94"/>
</g>
<g id="Group 1">
<path id="Vector_4_5_3" d="M29.001 751C34.523 751 39 746.522 39 740.999C39 735.477 34.523 731 29.001 731C23.477 731 19 735.477 19 740.999C19 746.522 23.477 751 29.001 751Z" fill="#8D62FF"/>
</g>
<g id="circle25">
<path id="Vector_4_6" d="M144.005 706C201.988 706 249 658.981 249 600.995C249 543.008 201.988 496 144.005 496C86.012 496 39 543.008 39 600.995C39 658.981 86.012 706 144.005 706Z" fill="#00EBDD"/>
</g>
<g id="circle23">
<path id="Vector_4_5_4" d="M83.001 299C88.523 299 93 294.522 93 288.999C93 283.477 88.523 279 83.001 279C77.477 279 73 283.477 73 288.999C73 294.522 77.477 299 83.001 299Z" fill="#00BDFF"/>
</g>
</g>
</g>
</svg>
