<svg width="372" height="844" viewBox="0 0 372 844" fill="none" xmlns="http://www.w3.org/2000/svg">
<g id="Mask group">
<mask id="mask0_2_3" style="mask-type:alpha" maskUnits="userSpaceOnUse" x="0" y="0" width="372" height="844">
<rect id="Rectangle 1" width="372" height="844" fill="#D9D9D9"/>
</mask>
<g mask="url(#mask0_2_3)">
<g id="c2">
<path id="Vector_4" d="M218 739C300.843 739 368 671.84 368 589C368 506.16 300.843 439 218 439C135.157 439 68 506.16 68 589C68 671.84 135.157 739 218 739Z" fill="#FF88E9"/>
</g>
<g id="circle32">
<path id="Vector_4_2" d="M227 374C268.421 374 302 340.42 302 299C302 257.58 268.421 224 227 224C185.579 224 152 257.58 152 299C152 340.42 185.579 374 227 374Z" fill="#62E0FF"/>
</g>
<g id="circle28">
<path id="Vector_4_5_2" d="M108.001 218C113.523 218 118 213.522 118 207.999C118 202.477 113.523 198 108.001 198C102.477 198 98 202.477 98 207.999C98 213.522 102.477 218 108.001 218Z" fill="#68FF59"/>
</g>
<g id="Group 2">
<path id="Vector_4_5_3_2" d="M50.001 424C55.523 424 60 419.52 60 414C60 408.48 55.523 404 50.001 404C44.477 404 40 408.48 40 414C40 419.52 44.477 424 50.001 424Z" fill="#FF59C3"/>
</g>
<g id="Group 1">
<path id="Vector_4_5_3_3" d="M292.001 198C297.523 198 302 193.522 302 187.999C302 182.477 297.523 178 292.001 178C286.477 178 282 182.477 282 187.999C282 193.522 286.477 198 292.001 198Z" fill="#4264FF"/>
</g>
<g id="circle24">
<path id="Vector_4_7" d="M60 106C87.614 106 110 83.614 110 56C110 28.386 87.614 6 60 6C32.386 6 10 28.386 10 56C10 83.614 32.386 106 60 106Z" fill="#E9F43A"/>
</g>
<g id="Group 3">
<path id="Vector_4_2_2" d="M64 839C88.8526 839 109 818.852 109 794C109 769.148 88.8526 749 64 749C39.1474 749 19 769.148 19 794C19 818.852 39.1474 839 64 839Z" fill="#6AFED4"/>
</g>
</g>
</g>
</svg>
